<?xml version="1.0" encoding="utf-8" ?>
<svg xmlns="http://www.w3.org/2000/svg" xmlns:xlink="http://www.w3.org/1999/xlink" width="1726" height="1726">
	<path transform="scale(3.37017 3.37017)" d="M254.218 57.5893C271.394 55.6769 272.54 75.2483 275.511 87.1378L295.294 165.462C299.884 183.301 307.629 197.039 328.502 199.183C334.057 199.754 339.715 198.929 345.246 198.378L412.049 191.183C425.378 189.601 438.767 187.757 452.145 186.658C468.778 185.292 477.924 203.888 465.058 215.324C461.545 218.446 456.446 220.607 452.34 222.893L433.42 233.654C409.633 247.433 383.743 265.504 362.153 282.306C335.092 303.364 338.726 310.498 351.273 342.507C360.435 365.88 370.358 388.992 380.434 411.991C385.123 422.693 395.262 438.162 385.686 449.038C372.682 463.808 357.348 444.473 348.315 436.069C330.537 419.527 278.769 366.218 257.218 367.308C243.678 361.753 220.536 385.323 211.706 392.946C192.763 409.301 174.154 426.001 155.998 443.222C152.993 446.072 149.925 449.376 146.372 451.53C135.603 458.059 120.717 450.01 122.345 436.978C122.781 433.48 124.842 429.998 126.198 426.784L143.092 386.939C148.482 374.162 153.896 361.423 159.017 348.53L165.816 331.022C171.383 316.316 173.417 305.043 161.809 291.308C147.414 274.274 77.2887 232.452 57.6713 221.362C50.2817 217.184 41.9927 214.05 40.663 204.506C39.4719 195.956 45.9445 187.566 54.5122 186.467C59.8027 185.789 73.9458 188.172 80.0187 188.887L158.966 197.829C181 200.286 199.279 201.349 212.689 178.85C216.312 172.771 217.358 166.288 218.867 159.511L235.986 86.0643C238.769 74.094 239.159 59.403 254.218 57.5893Z"/>
	<path fill="#FD8D31" transform="scale(3.37017 3.37017)" d="M128.679 438.854C129.843 434.72 132.026 430.714 133.69 426.744L151.444 385.252C159.251 366.672 168.271 345.946 174.752 326.903C179.159 313.954 176.797 300.279 168.956 289.184C156.929 272.165 89.5353 231.76 71.2351 221.298C66.6739 218.69 50.3012 210.101 48.5148 206.191C46.3001 201.344 48.6188 194.222 54.3268 193.23C58.3095 192.538 75.2131 195.312 80.2394 195.943L159.41 205.008C183.62 207.554 205.326 206.532 219.076 181.689C223.022 174.56 224.443 166.481 226.263 158.63L230.959 138.031C234.847 120.83 238.661 103.575 242.918 86.464C245.024 78.0039 245.663 59.2654 260.185 65.3291C266.746 69.5161 266.869 80.971 268.774 88.3972L287.296 162.02C289.244 169.794 290.747 177.7 294.78 184.737C306.318 204.874 324.863 207.248 345.284 205.09L435.232 195.685C440.299 195.173 453.658 192.907 457.726 193.917C463.485 195.348 465.613 202.997 462.601 207.725C460.243 211.426 444.677 219.051 440.304 221.589C422.184 232.106 353.665 274.442 341.87 291.207C328.523 310.18 338.108 327.74 345.485 346.332C354.151 368.169 363.222 389.841 372.623 411.367L379.697 427.504C382.7 434.386 387.272 445.297 374.948 447.426C369.533 448.362 362.597 439.929 359.11 436.705L327.814 407.663C312.391 393.306 296.527 378.648 278.702 367.308C263.115 359.278 248.666 355.809 233.635 366.23C222.889 373.68 210.985 384.81 200.988 393.604C187.077 405.84 173.076 417.862 159.555 430.535C152.284 437.349 135.402 458.902 128.679 438.854Z"/>
	<path fill="#F55E24" transform="scale(3.37017 3.37017)" d="M128.679 438.854C129.843 434.72 132.026 430.714 133.69 426.744L151.444 385.252C159.251 366.672 168.271 345.946 174.752 326.903C179.159 313.954 176.797 300.279 168.956 289.184C156.929 272.165 89.5353 231.76 71.2351 221.298C66.6739 218.69 50.3012 210.101 48.5148 206.191C46.3001 201.344 48.6188 194.222 54.3268 193.23C58.3095 192.538 75.2131 195.312 80.2394 195.943L159.41 205.008C183.62 207.554 205.326 206.532 219.076 181.689C223.022 174.56 224.443 166.481 226.263 158.63L230.959 138.031C234.847 120.83 238.661 103.575 242.918 86.464C245.024 78.0039 245.663 59.2654 260.185 65.3291C258.694 72.6523 255.427 87.0523 254.961 94.1515C245.625 97.2213 244.814 106.899 251.781 112.618C250.683 115.05 247.36 126.823 248.272 128.937C242.859 133.294 241.835 138.071 243.938 144.466C242.729 146.635 237.711 172.197 236.832 176.25C233.107 193.426 230.169 208.706 211.605 215.254C195.421 220.963 165.798 214.52 148.819 211.572C145.716 211.033 122.203 205.926 120.744 208.802C126.902 212.518 128.4 220.072 123.81 225.802C124.799 227.092 132.843 230.927 134.603 230.638L134.837 230.302C137.019 241.771 147.78 245.323 156.716 237.444C158.114 238.968 171.257 246.089 172.958 245.471C176.478 251.699 178.359 250.829 183.447 252.937C184.27 255.93 189.006 258.655 191.123 260.923C203.085 273.735 207.503 291.18 200.797 307.642C195.6 320.403 185.921 331.387 179.91 343.939C178.465 346.957 166.545 374.201 167.808 376.509C165.229 379.996 164.088 383.07 164.911 387.349C162.952 389.167 161.488 396.264 159.058 399.323L159.069 399.641L160.386 399.904C164.72 400.733 167.29 402.169 169.163 406.133C172.706 403.402 177.469 397.673 181.141 394.343C184.207 391.561 187.74 389.291 190.902 386.602C211.079 369.446 233.151 344.441 262.273 356.373C266.72 358.194 276.837 362.856 278.702 367.308C263.115 359.278 248.666 355.809 233.635 366.23C222.889 373.68 210.985 384.81 200.988 393.604C187.077 405.84 173.076 417.862 159.555 430.535C152.284 437.349 135.402 458.902 128.679 438.854Z"/>
	<path transform="scale(3.37017 3.37017)" d="M123.81 225.802C120.192 228.905 115.27 230.658 110.623 228.739C97.3721 223.266 106.039 201.28 120.744 208.802C126.902 212.518 128.4 220.072 123.81 225.802Z"/>
	<path fill="#7BBCDE" transform="scale(3.37017 3.37017)" d="M113.582 211.793C122.878 211.04 124.738 221.388 116.656 224.681C107.385 225.491 105.746 215.161 113.582 211.793Z"/>
	<path transform="scale(3.37017 3.37017)" d="M160.386 399.904C164.72 400.733 167.29 402.169 169.163 406.133C170.345 415.432 162.49 424.4 154.345 418.198C147.229 412.78 150.881 400.54 160.386 399.904Z"/>
	<path fill="#7BBCDE" transform="scale(3.37017 3.37017)" d="M160.386 404.507C167.432 404.743 165.93 413.303 160.84 415.456C153.817 416.64 154.106 406.554 160.386 404.507Z"/>
	<path transform="scale(3.37017 3.37017)" d="M81.2319 200.032C94.4824 199.513 97.401 215.81 84.8788 219.423C71.6412 222.251 68.8434 203.193 81.2319 200.032Z"/>
	<path fill="#7BBCDE" transform="scale(3.37017 3.37017)" d="M82.0675 204.52C89.5931 204.287 90.3433 212.812 84.0014 215.317C76.4218 215.821 75.7216 206.921 82.0675 204.52Z"/>
	<path transform="scale(3.37017 3.37017)" d="M172.958 245.471C168.569 231.986 180.189 222.032 191.606 228.114C204.617 235.045 197.944 253.887 183.447 252.937C178.359 250.829 176.478 251.699 172.958 245.471Z"/>
	<path fill="#7BBCDE" transform="scale(3.37017 3.37017)" d="M183.447 231.229C195.032 229.114 197.396 245.746 186.605 248.485C174.966 249.156 172.2 233.935 183.447 231.229Z"/>
	<path transform="scale(3.37017 3.37017)" d="M134.837 230.302C134.436 207.522 170.976 216.896 156.716 237.444C147.78 245.323 137.019 241.771 134.837 230.302Z"/>
	<path fill="#7BBCDE" transform="scale(3.37017 3.37017)" d="M146.741 221.289C157.687 221.279 158.046 234.484 148.062 237.444C137.68 237.077 136.363 223.803 146.741 221.289Z"/>
	<path transform="scale(3.37017 3.37017)" d="M248.272 128.937C259.864 122.951 271.645 132.32 267.345 143.497C263.287 154.044 249.351 153.017 243.938 144.466C241.835 138.071 242.859 133.294 248.272 128.937Z"/>
	<path fill="#7BBCDE" transform="scale(3.37017 3.37017)" d="M253.602 131.553C264.29 130.46 267.592 143.105 257.218 146.617C247.185 147.799 243.64 134.972 253.602 131.553Z"/>
	<path transform="scale(3.37017 3.37017)" d="M167.808 376.509C186.465 361.929 192.265 398.337 172.403 394.166C168.692 393.386 166.436 390.594 164.911 387.349C164.088 383.07 165.229 379.996 167.808 376.509Z"/>
	<path fill="#7BBCDE" transform="scale(3.37017 3.37017)" d="M175.458 378.289C182.179 378.368 183.539 387.689 175.458 390.334C167.325 390.219 166.529 380.489 175.458 378.289Z"/>
	<path transform="scale(3.37017 3.37017)" d="M254.961 94.1515C274.48 90.3718 270.386 122.153 251.781 112.618C244.814 106.899 245.625 97.2213 254.961 94.1515Z"/>
	<path fill="#7BBCDE" transform="scale(3.37017 3.37017)" d="M257.218 98.5842C261.322 98.8268 262.358 100.553 263.379 104.431C262.444 107.456 261.392 109.009 258.073 109.733C250.274 109.883 249.68 99.8028 257.218 98.5842Z"/>
	<path transform="scale(3.37017 3.37017)" d="M220.337 242.087C234.571 236.695 246.057 264.337 224.515 270.263C202.975 271.058 202.904 243.408 220.337 242.087Z"/>
	<path fill="#7BBCDE" transform="scale(3.37017 3.37017)" d="M220.337 246.783C232.189 243.105 237.056 261.195 224.515 265.519C210.695 267.904 207.419 248.962 220.337 246.783Z"/>
	<path transform="scale(3.37017 3.37017)" d="M254.218 208.023C256.404 206.512 260.392 207.787 262.506 208.89C274.603 215.202 271.686 231.897 258.073 235.831C238.43 238.855 234.863 207.989 254.218 208.023Z"/>
	<path fill="#7BBCDE" transform="scale(3.37017 3.37017)" d="M254.218 211.793C267.272 211.256 269.682 227.847 257.218 231.229C243.991 232.795 241.667 214.917 254.218 211.793Z"/>
	<path transform="scale(3.37017 3.37017)" d="M286.716 242.087C304.499 240.139 308.829 266.307 290.29 270.263C269.843 271.053 267.795 244.847 286.716 242.087Z"/>
	<path fill="#7BBCDE" transform="scale(3.37017 3.37017)" d="M286.716 246.783C298.801 245.49 302.05 261.574 290.29 265.519C277.21 267.497 273.392 250.215 286.716 246.783Z"/>
	<path transform="scale(3.37017 3.37017)" d="M229.475 285.32C251.081 287.455 248.211 310.226 233.006 313.199C215.396 314.413 209.73 291.958 229.475 285.32Z"/>
	<path fill="#7BBCDE" transform="scale(3.37017 3.37017)" d="M229.475 290.551C241.836 289.75 244.195 304.57 233.006 308.536C220.418 310.273 217.025 293.587 229.475 290.551Z"/>
	<path transform="scale(3.37017 3.37017)" d="M278.217 285.32C295.473 284.095 299.853 307.798 282.178 312.186C263.316 314.789 259.234 288.092 278.217 285.32Z"/>
	<path fill="#7BBCDE" transform="scale(3.37017 3.37017)" d="M278.217 289.793C289.964 289.013 292.951 303.076 282.178 307.605C268.937 308.925 265.976 293.469 278.217 289.793Z"/>
	<path transform="scale(3.37017 3.37017)" d="M325.556 230.302C327.808 229.278 331.813 231.475 333.529 232.844C343.52 240.808 337.282 255.342 325.556 256.34C306.916 256.153 306.956 230.547 325.556 230.302Z"/>
	<path fill="#7BBCDE" transform="scale(3.37017 3.37017)" d="M323.846 234.788C335.462 233.63 336.894 248.528 326.818 251.688C315.296 253.664 311.989 238.071 323.846 234.788Z"/>
	<path transform="scale(3.37017 3.37017)" d="M254.218 163.805C272.189 162.481 275.373 184.857 258.943 189.299C241.66 191.811 236.859 168.488 254.218 163.805Z"/>
	<path fill="#7BBCDE" transform="scale(3.37017 3.37017)" d="M254.961 168.287C266.149 167.698 268.61 181.915 258.073 184.807C246.411 185.755 243.759 171.423 254.961 168.287Z"/>
	<path transform="scale(3.37017 3.37017)" d="M208.3 319.345C224.317 320.298 224.324 342.747 208.3 343.829C192.019 343.756 189.857 320.834 208.3 319.345Z"/>
	<path fill="#7BBCDE" transform="scale(3.37017 3.37017)" d="M206.072 323.566C216.489 322.726 220.013 335.518 209.319 339.369C198.414 340.457 196.156 327.32 206.072 323.566Z"/>
	<path transform="scale(3.37017 3.37017)" d="M302.592 319.345C318.341 318.177 321.79 340.072 305.194 343.829C288.526 343.866 286.041 321.806 302.592 319.345Z"/>
	<path fill="#7BBCDE" transform="scale(3.37017 3.37017)" d="M303.383 323.566C313.6 324.03 314.762 336.316 305.194 339.369C293.925 339.039 292.925 325.568 303.383 323.566Z"/>
	<path transform="scale(3.37017 3.37017)" d="M254.218 260.832C269.91 259.811 273.26 280.946 257.218 285.32C240.632 286.406 237.547 263.035 254.218 260.832Z"/>
	<path fill="#7BBCDE" transform="scale(3.37017 3.37017)" d="M254.961 265.519C264.049 264.222 266.296 277.959 256.648 280.756C245.961 280.906 244.025 267.38 254.961 265.519Z"/>
	<path transform="scale(3.37017 3.37017)" d="M353.69 221.289C367.23 218.813 374.012 240.198 356.1 245.471C338.48 244.15 338.66 222.674 353.69 221.289Z"/>
	<path fill="#7BBCDE" transform="scale(3.37017 3.37017)" d="M353.69 225.802C363.729 224.935 365.661 238.305 356.1 240.434C346.144 241.246 343.812 229.245 353.69 225.802Z"/>
	<path transform="scale(3.37017 3.37017)" d="M320.007 346.795C335.795 345.639 338.265 366.031 323.846 369.465C309.207 371.849 304.931 350.352 320.007 346.795Z"/>
	<path fill="#7BBCDE" transform="scale(3.37017 3.37017)" d="M320.901 351.553C330.747 351.303 331.471 362.536 322.894 365.121C313.635 365.623 312.185 353.699 320.901 351.553Z"/>
	<path transform="scale(3.37017 3.37017)" d="M189.426 345.81C202.095 344.264 207.386 363.619 192.228 368.086C177.656 370.311 172.849 348.486 189.426 345.81Z"/>
	<path fill="#7BBCDE" transform="scale(3.37017 3.37017)" d="M189.426 350.31C197.807 350.382 199.953 360.231 192.228 363.718C182.294 365.326 180.35 352.439 189.426 350.31Z"/>
	<path transform="scale(3.37017 3.37017)" d="M381.943 213.792C397.351 212.902 400.265 230.436 386.409 235.831C371.33 236.875 367.895 218.105 381.943 213.792Z"/>
	<path fill="#7BBCDE" transform="scale(3.37017 3.37017)" d="M383.387 218.059C392.487 218.77 392.912 228.856 384.802 231.229C376.13 231.467 375.25 219.935 383.387 218.059Z"/>
	<path transform="scale(3.37017 3.37017)" d="M335.987 375.31C349.382 374.117 351.073 391.56 338.494 394.505C325.002 395.546 322.662 377.936 335.987 375.31Z"/>
	<path fill="#7BBCDE" transform="scale(3.37017 3.37017)" d="M335.987 379.776C343.115 378.749 344.033 387.391 338.494 390.334C331.336 390.898 328.983 382.608 335.987 379.776Z"/>
	<path transform="scale(3.37017 3.37017)" d="M409.503 208.802C421.599 207.954 424.356 223.488 412.779 227.01C400.21 228.762 397.155 211.746 409.503 208.802Z"/>
	<path fill="#7BBCDE" transform="scale(3.37017 3.37017)" d="M410.369 213.792C416.604 213.292 417.502 220.572 411.682 222.692C405.388 222.866 403.965 214.971 410.369 213.792Z"/>
	<path transform="scale(3.37017 3.37017)" d="M351.509 400.782C363.61 399.999 366.545 415.826 354.825 418.946C341.645 419.89 339.897 403.753 351.509 400.782Z"/>
	<path fill="#7BBCDE" transform="scale(3.37017 3.37017)" d="M352.292 405.258C358.624 405.033 359.119 412.574 353.69 414.528C347.125 414.8 346.894 407.664 352.292 405.258Z"/>
	<path transform="scale(3.37017 3.37017)" d="M432.748 203.591C443.007 201.734 447.103 215.722 435.865 219.423C425.245 219.591 421.212 205.704 432.748 203.591Z"/>
	<path fill="#7BBCDE" transform="scale(3.37017 3.37017)" d="M432.748 208.023C437.64 207.603 439.89 211.851 435.865 215.317C431.352 214.911 428.02 210.741 432.748 208.023Z"/>
</svg>
