<svg width="4233" height="987" viewBox="0 0 4233 987" fill="none" xmlns="http://www.w3.org/2000/svg">
<path d="M229.9 982.9L45.1 966.4L85.8 210.7C66.7333 215.1 49.1333 220.233 33 226.1L0 39.1C38.8667 31.0333 86.9 22.6 144.1 13.7999C201.3 4.99998 260.333 0.599988 321.2 0.599988C368.133 0.599988 415.8 5.73332 464.2 16C512.6 25.5333 558.8 41.6666 602.8 64.4C647.533 86.4 687.133 116.1 721.6 153.5C756.8 190.9 784.3 236.733 804.1 291C824.633 345.267 834.9 409.433 834.9 483.5C834.9 587.633 818.033 676.733 784.3 750.8C751.3 824.133 702.9 880.233 639.1 919.1C576.033 957.967 499.767 977.4 410.3 977.4C350.9 977.4 292.233 966.4 234.3 944.4C232.833 959.067 231.367 971.9 229.9 982.9ZM313.5 185.4C303.233 185.4 292.6 185.4 281.6 185.4C274.267 321.8 267.667 438.033 261.8 534.1C255.933 629.433 250.8 709 246.4 772.8C268.4 780.133 292.6 786.733 319 792.6C346.133 797.733 374.367 800.3 403.7 800.3C463.1 800.3 510.767 785.267 546.7 755.2C583.367 725.133 609.767 685.533 625.9 636.4C642.033 586.533 650.1 532.633 650.1 474.7C650.1 428.5 643.133 389.267 629.2 357C615.267 324.733 596.933 297.967 574.2 276.7C552.2 255.433 528 238.933 501.6 227.2C475.2 214.733 449.167 205.567 423.5 199.7C398.567 193.833 376.2 190.167 356.4 188.7C336.6 186.5 322.3 185.4 313.5 185.4ZM971.163 971.9C970.429 963.833 970.063 955.033 970.063 945.5C970.063 935.967 970.063 924.967 970.063 912.5C970.063 880.967 970.796 843.567 972.263 800.3C973.729 756.3 975.929 709.733 978.863 660.6C981.796 610.733 984.729 560.867 987.663 511C990.596 460.4 993.529 412 996.463 365.8C1000.13 319.6 1003.43 278.167 1006.36 241.5C990.229 246.633 975.929 251.4 963.463 255.8L934.863 70.9999C1017.73 47.5333 1094.73 29.9333 1165.86 18.2C1237.73 6.46665 1302.63 0.599988 1360.56 0.599988C1478.63 0.599988 1568.83 22.9667 1631.16 67.7C1693.5 112.433 1724.66 177.333 1724.66 262.4C1724.66 310.8 1714.03 351.5 1692.76 384.5C1671.5 416.767 1641.43 443.533 1602.56 464.8C1697.9 513.2 1745.56 592.033 1745.56 701.3C1745.56 749.7 1736.4 790.4 1718.06 823.4C1700.46 855.667 1677.73 881.7 1649.86 901.5C1622 921.3 1592.3 935.967 1560.76 945.5C1529.96 955.767 1500.63 962.367 1472.76 965.3C1445.63 968.967 1424.36 970.8 1408.96 970.8C1370.83 970.8 1330.13 967.133 1286.86 959.8C1243.6 952.467 1201.43 941.467 1160.36 926.8C1160.36 941.467 1160.36 955.4 1160.36 968.6L971.163 971.9ZM1364.96 184.3C1338.56 184.3 1310.7 185.767 1281.36 188.7C1252.76 190.9 1224.16 194.567 1195.56 199.7C1191.16 253.233 1186.76 315.567 1182.36 386.7C1191.9 387.433 1201.43 387.8 1210.96 387.8C1221.23 387.8 1231.5 387.8 1241.76 387.8C1435.36 387.8 1532.16 348.2 1532.16 269C1532.16 242.6 1517.13 222.067 1487.06 207.4C1457.73 192 1417.03 184.3 1364.96 184.3ZM1267.06 561.6C1251.66 561.6 1235.9 561.6 1219.76 561.6C1204.36 561.6 1188.6 561.967 1172.46 562.7C1171 594.967 1169.53 627.233 1168.06 659.5C1167.33 691.767 1166.23 723.667 1164.76 755.2C1205.83 767.667 1246.16 776.833 1285.76 782.7C1325.36 787.833 1359.46 790.4 1388.06 790.4C1448.93 790.4 1492.56 783.067 1518.96 768.4C1545.36 753 1558.56 728.067 1558.56 693.6C1558.56 651.067 1533.26 618.433 1482.66 595.7C1432.8 572.967 1360.93 561.6 1267.06 561.6ZM1889.67 975.2C1883.07 934.133 1878.3 883.9 1875.37 824.5C1872.44 765.1 1870.97 700.933 1870.97 632C1870.97 560.867 1872.07 487.9 1874.27 413.1C1877.2 338.3 1880.5 266.433 1884.17 197.5C1888.57 127.833 1893.34 66.2333 1898.47 12.7L2089.87 16C2081.8 67.3333 2075.2 124.533 2070.07 187.6C2065.67 249.933 2062 314.833 2059.07 382.3C2111.14 374.967 2167.6 369.467 2228.47 365.8C2289.34 362.133 2348 360.3 2404.47 360.3C2431.6 360.3 2457.64 361.033 2482.57 362.5C2481.84 307.5 2480.74 256.167 2479.27 208.5C2477.8 160.833 2475.97 120.5 2473.77 87.5C2471.57 54.5 2469 31.7666 2466.07 19.2999L2655.27 7.19997C2661.87 68.8 2667 142.5 2670.67 228.3C2675.07 314.1 2677.27 405.033 2677.27 501.1C2677.27 578.833 2675.8 658.033 2672.87 738.7C2669.94 818.633 2664.8 895.633 2657.47 969.7H2473.77C2476.7 946.233 2478.9 914.333 2480.37 874C2481.84 832.933 2482.94 786.733 2483.67 735.4C2484.4 683.333 2484.77 629.067 2484.77 572.6C2484.77 562.333 2484.77 551.7 2484.77 540.7C2470.84 540.7 2456.54 540.7 2441.87 540.7C2427.94 539.967 2413.64 539.6 2398.97 539.6C2341.04 539.6 2282.37 541.8 2222.97 546.2C2164.3 549.867 2108.2 555.367 2054.67 562.7C2054.67 586.167 2054.67 609.633 2054.67 633.1C2054.67 697.633 2055.04 758.133 2055.77 814.6C2057.24 871.067 2059.44 922.4 2062.37 968.6L1889.67 975.2ZM3052.37 986.2C3005.44 986.2 2966.57 977.767 2935.77 960.9C2905.7 944.767 2881.5 922.4 2863.17 893.8C2845.57 865.2 2832.37 833.3 2823.57 798.1C2815.5 762.167 2810 725.133 2807.07 687C2804.87 648.133 2803.77 610.733 2803.77 574.8C2803.77 533.733 2804.87 491.933 2807.07 449.4C2810 406.867 2812.94 360.3 2815.87 309.7L3017.17 297.6C3014.97 313 3011.67 336.1 3007.27 366.9C3002.87 397.7 2998.84 432.9 2995.17 472.5C2991.5 512.1 2989.67 553.533 2989.67 596.8C2989.67 667.933 2995.9 720.733 3008.37 755.2C3020.84 788.933 3039.54 805.8 3064.47 805.8C3114.34 805.8 3151 769.5 3174.47 696.9C3197.94 624.3 3209.67 509.533 3209.67 352.6V302L3303.17 299.8L3416.47 297.6C3406.2 366.533 3398.5 429.967 3393.37 487.9C3388.24 545.833 3384.94 594.6 3383.47 634.2C3382 673.067 3381.27 699.1 3381.27 712.3C3381.27 746.033 3384.2 770.233 3390.07 784.9C3395.94 798.833 3406.2 805.8 3420.87 805.8C3428.2 805.8 3436.27 804.333 3445.07 801.4C3453.87 798.467 3464.14 793.333 3475.87 786L3468.17 975.2C3440.3 979.6 3416.1 981.8 3395.57 981.8C3360.37 981.8 3331.4 975.2 3308.67 962C3286.67 948.8 3269.07 931.2 3255.87 909.2C3233.14 933.4 3204.9 952.1 3171.17 965.3C3138.17 979.233 3098.57 986.2 3052.37 986.2ZM3576.47 975.2C3576.47 915.067 3577.57 850.533 3579.77 781.6C3581.97 712.667 3584.9 642.633 3588.57 571.5C3592.24 500.367 3595.9 430.7 3599.57 362.5C3603.97 294.3 3608.37 230.133 3612.77 170C3617.17 109.133 3620.84 55.2333 3623.77 8.29995L3807.47 10.4999C3803.07 52.3 3798.67 99.2333 3794.27 151.3C3790.6 203.367 3786.94 258.733 3783.27 317.4C3804.54 308.6 3827.27 302 3851.47 297.6C3876.4 292.467 3903.17 289.9 3931.77 289.9C3970.64 289.9 4007.67 296.5 4042.87 309.7C4078.8 322.167 4111.07 341.6 4139.67 368C4168.27 394.4 4190.64 428.5 4206.77 470.3C4223.64 512.1 4232.07 562.333 4232.07 621C4232.07 683.333 4223.27 737.233 4205.67 782.7C4188.07 828.167 4164.24 865.567 4134.17 894.9C4104.1 924.233 4070 945.867 4031.87 959.8C3994.47 974.467 3955.97 981.8 3916.37 981.8C3886.3 981.8 3858.07 977.767 3831.67 969.7C3806 961.633 3782.17 951 3760.17 937.8C3760.17 949.533 3760.17 961.267 3760.17 973L3576.47 975.2ZM3906.47 474.7C3851.47 474.7 3806.74 490.833 3772.27 523.1C3769.34 590.567 3766.77 656.567 3764.57 721.1C3800.5 768.767 3850.74 792.6 3915.27 792.6C3936.54 792.6 3957.8 787.833 3979.07 778.3C4001.07 768.033 4019.4 750.8 4034.07 726.6C4048.74 702.4 4056.07 668.667 4056.07 625.4C4056.07 576.267 4043.24 538.867 4017.57 513.2C3992.64 487.533 3955.6 474.7 3906.47 474.7Z" fill="black"/>
</svg>
