<svg width="1371" height="377" viewBox="0 0 1371 377" fill="none" xmlns="http://www.w3.org/2000/svg">
<path d="M178.698 57.4814C190.772 56.1371 191.577 69.8944 193.666 78.252L207.572 133.309C210.798 145.848 216.242 155.505 230.915 157.012C234.819 157.414 238.797 156.834 242.685 156.446L289.643 151.389C299.012 150.277 308.423 148.98 317.827 148.208C329.519 147.248 335.948 160.319 326.904 168.358C324.435 170.553 320.851 172.072 317.964 173.679L304.665 181.243C287.944 190.929 269.745 203.631 254.569 215.442C235.547 230.244 238.101 235.259 246.921 257.759C253.361 274.189 260.337 290.435 267.419 306.602C270.715 314.125 277.842 324.998 271.111 332.643C261.97 343.026 251.191 329.434 244.842 323.527C232.345 311.899 195.956 274.426 180.807 275.193C171.289 271.288 155.022 287.856 148.815 293.214C135.499 304.711 122.418 316.45 109.656 328.555C107.544 330.558 105.387 332.881 102.89 334.395C95.3197 338.984 84.8559 333.327 86.0003 324.166C86.3067 321.707 87.7555 319.259 88.7087 317L100.584 288.992C104.373 280.011 108.178 271.056 111.778 261.993L116.557 249.686C120.471 239.349 121.9 231.425 113.741 221.77C103.622 209.796 54.3287 180.398 40.539 172.602C35.3446 169.666 29.518 167.463 28.5833 160.754C27.7461 154.744 32.2959 148.846 38.3184 148.074C42.0373 147.597 51.9789 149.272 56.2477 149.775L111.742 156.06C127.231 157.787 140.08 158.535 149.506 142.719C152.053 138.446 152.788 133.889 153.849 129.125L165.882 77.4974C167.838 69.083 168.113 58.7563 178.698 57.4814Z" fill="black"/>
<path d="M90.4526 324.819C91.2709 321.913 92.8054 319.097 93.975 316.306L106.455 287.14C111.943 274.08 118.283 259.511 122.839 246.125C125.937 237.023 124.276 227.41 118.765 219.611C110.31 207.648 62.9373 179.246 50.0735 171.892C46.8672 170.059 35.3583 164.021 34.1026 161.273C32.5458 157.865 34.1757 152.859 38.1881 152.162C40.9876 151.675 52.8697 153.625 56.4029 154.069L112.054 160.441C129.072 162.231 144.33 161.512 153.996 144.049C156.769 139.038 157.768 133.359 159.048 127.84L162.349 113.361C165.082 101.27 167.763 89.1405 170.755 77.1126C172.235 71.1657 172.684 57.9938 182.892 62.2562C187.504 65.1994 187.591 73.2514 188.93 78.4715L201.95 130.223C203.319 135.688 204.375 141.245 207.21 146.192C215.321 160.347 228.357 162.016 242.711 160.499L305.939 153.888C309.5 153.528 318.891 151.935 321.75 152.645C325.799 153.651 327.294 159.027 325.177 162.351C323.52 164.952 312.578 170.312 309.504 172.096C296.767 179.489 248.603 209.248 240.311 221.033C230.929 234.37 237.667 246.713 242.853 259.782C248.944 275.132 255.321 290.366 261.929 305.497L266.901 316.841C269.012 321.678 272.226 329.348 263.563 330.845C259.757 331.502 254.881 325.575 252.43 323.308L230.431 302.894C219.59 292.802 208.438 282.498 195.909 274.527C184.952 268.882 174.795 266.444 164.23 273.769C156.676 279.006 148.308 286.83 141.281 293.011C131.502 301.612 121.661 310.063 112.156 318.971C107.045 323.761 95.1785 338.911 90.4526 324.819Z" fill="#FD8D31"/>
<path d="M90.4526 325.485C91.2709 322.579 92.8054 319.763 93.975 316.972L106.455 287.806C111.943 274.746 118.283 260.177 122.839 246.791C125.937 237.688 124.276 228.076 118.765 220.277C110.31 208.314 62.9373 179.912 50.0735 172.558C46.8672 170.724 35.3583 164.687 34.1026 161.938C32.5458 158.531 34.1757 153.525 38.1881 152.828C40.9876 152.341 52.8697 154.291 56.4029 154.735L112.054 161.107C129.072 162.896 144.33 162.178 153.996 144.715C156.769 139.704 157.768 134.025 159.048 128.506L162.349 114.026C165.082 101.935 167.763 89.8062 170.755 77.7784C172.235 71.8315 172.684 58.6596 182.892 62.922C181.844 68.0697 179.548 78.1919 179.22 83.1822C172.658 85.34 172.088 92.1428 176.985 96.1629C176.213 97.8724 173.877 106.148 174.518 107.634C170.713 110.697 169.994 114.055 171.472 118.55C170.622 120.075 167.095 138.043 166.477 140.892C163.858 152.965 161.793 163.706 148.744 168.309C137.368 172.322 116.545 167.793 104.61 165.721C102.428 165.342 85.9005 161.752 84.8749 163.774C89.2035 166.386 90.2565 171.696 87.0301 175.724C87.7253 176.63 93.3796 179.326 94.6168 179.123L94.7813 178.887C96.3151 186.949 103.879 189.445 110.161 183.907C111.143 184.978 120.382 189.984 121.578 189.55C124.052 193.927 125.374 193.316 128.951 194.798C129.529 196.901 132.858 198.817 134.347 200.411C142.755 209.417 145.861 221.68 141.147 233.252C137.494 242.222 130.69 249.943 126.465 258.766C125.449 260.887 117.07 280.038 117.958 281.66C116.145 284.112 115.343 286.272 115.921 289.28C114.544 290.558 113.515 295.547 111.807 297.697L111.815 297.921L112.741 298.105C115.787 298.688 117.594 299.698 118.91 302.484C121.401 300.564 124.749 296.537 127.33 294.196C129.485 292.241 131.969 290.645 134.191 288.755C148.374 276.696 163.889 259.119 184.36 267.506C187.486 268.786 194.598 272.063 195.909 275.193C184.952 269.548 174.795 267.11 164.23 274.435C156.676 279.672 148.308 287.495 141.281 293.677C131.502 302.278 121.661 310.729 112.156 319.637C107.045 324.427 95.1785 339.577 90.4526 325.485Z" fill="#F55E24"/>
<path d="M87.03 175.724C84.4868 177.905 81.027 179.137 77.7605 177.788C68.446 173.941 74.5382 158.486 84.8749 163.774C89.2035 166.386 90.2565 171.696 87.03 175.724Z" fill="black"/>
<path d="M79.8405 165.876C86.3749 165.347 87.6824 172.621 82.0013 174.936C75.4844 175.505 74.3323 168.244 79.8405 165.876Z" fill="#7BBCDE"/>
<path d="M112.741 298.105C115.787 298.688 117.594 299.698 118.91 302.484C119.741 309.021 114.219 315.325 108.494 310.965C103.492 307.156 106.059 298.553 112.741 298.105Z" fill="black"/>
<path d="M112.74 301.341C117.693 301.507 116.638 307.524 113.06 309.037C108.123 309.87 108.326 302.78 112.74 301.341Z" fill="#7BBCDE"/>
<path d="M57.1005 157.609C66.4147 157.244 68.4663 168.7 59.6641 171.24C50.3589 173.227 48.3923 159.831 57.1005 157.609Z" fill="black"/>
<path d="M57.6879 160.764C62.9779 160.6 63.5052 166.592 59.0473 168.353C53.7194 168.708 53.2272 162.451 57.6879 160.764Z" fill="#7BBCDE"/>
<path d="M121.578 189.55C118.493 180.07 126.661 173.073 134.686 177.349C143.832 182.221 139.141 195.465 128.951 194.798C125.374 193.316 124.052 193.927 121.578 189.55Z" fill="black"/>
<path d="M128.951 179.538C137.094 178.052 138.756 189.743 131.171 191.668C122.989 192.14 121.045 181.44 128.951 179.538Z" fill="#7BBCDE"/>
<path d="M94.7813 178.887C94.4994 162.874 120.185 169.463 110.161 183.907C103.879 189.445 96.3151 186.949 94.7813 178.887Z" fill="black"/>
<path d="M103.149 172.551C110.843 172.544 111.096 181.826 104.078 183.907C96.7797 183.649 95.8539 174.318 103.149 172.551Z" fill="#7BBCDE"/>
<path d="M174.518 107.634C182.667 103.426 190.948 110.012 187.925 117.869C185.073 125.283 175.277 124.561 171.472 118.55C169.994 114.055 170.713 110.697 174.518 107.634Z" fill="black"/>
<path d="M178.265 109.473C185.778 108.705 188.099 117.593 180.807 120.062C173.754 120.893 171.262 111.876 178.265 109.473Z" fill="#7BBCDE"/>
<path d="M117.958 281.66C131.072 271.412 135.149 297.004 121.188 294.072C118.579 293.524 116.993 291.561 115.921 289.28C115.343 286.272 116.145 284.111 117.958 281.66Z" fill="black"/>
<path d="M123.335 282.912C128.06 282.967 129.015 289.519 123.335 291.378C117.618 291.298 117.059 284.458 123.335 282.912Z" fill="#7BBCDE"/>
<path d="M179.22 83.1821C192.941 80.5253 190.063 102.865 176.985 96.1628C172.088 92.1428 172.658 85.34 179.22 83.1821Z" fill="black"/>
<path d="M180.807 86.298C183.692 86.4686 184.42 87.682 185.138 90.4079C184.48 92.5343 183.741 93.626 181.408 94.1349C175.926 94.2403 175.508 87.1546 180.807 86.298Z" fill="#7BBCDE"/>
<path d="M154.882 187.171C164.888 183.381 172.961 202.811 157.819 206.977C142.678 207.535 142.628 188.099 154.882 187.171Z" fill="black"/>
<path d="M154.882 190.472C163.213 187.886 166.634 200.602 157.819 203.642C148.104 205.318 145.802 192.003 154.882 190.472Z" fill="#7BBCDE"/>
<path d="M178.698 163.226C180.235 162.164 183.038 163.06 184.524 163.836C193.027 168.272 190.977 180.008 181.408 182.773C167.6 184.899 165.093 163.202 178.698 163.226Z" fill="black"/>
<path d="M178.698 165.876C187.874 165.499 189.568 177.161 180.807 179.538C171.509 180.639 169.876 168.072 178.698 165.876Z" fill="#7BBCDE"/>
<path d="M201.542 187.171C214.042 185.801 217.086 204.196 204.054 206.977C189.681 207.532 188.242 189.111 201.542 187.171Z" fill="black"/>
<path d="M201.542 190.472C210.037 189.563 212.321 200.869 204.054 203.642C194.86 205.032 192.176 192.884 201.542 190.472Z" fill="#7BBCDE"/>
<path d="M161.305 217.561C176.493 219.061 174.476 235.068 163.787 237.158C151.409 238.011 147.426 222.227 161.305 217.561Z" fill="black"/>
<path d="M161.305 221.238C169.994 220.675 171.653 231.092 163.787 233.88C154.939 235.101 152.554 223.372 161.305 221.238Z" fill="#7BBCDE"/>
<path d="M195.568 217.561C207.698 216.7 210.776 233.361 198.352 236.446C185.093 238.275 182.224 219.509 195.568 217.561Z" fill="black"/>
<path d="M195.568 220.705C203.825 220.157 205.925 230.042 198.352 233.226C189.045 234.153 186.963 223.289 195.568 220.705Z" fill="#7BBCDE"/>
<path d="M228.844 178.887C230.427 178.167 233.242 179.711 234.448 180.674C241.471 186.272 237.086 196.488 228.844 197.19C215.741 197.058 215.769 179.059 228.844 178.887Z" fill="black"/>
<path d="M227.642 182.04C235.807 181.226 236.814 191.698 229.731 193.92C221.632 195.309 219.307 184.348 227.642 182.04Z" fill="#7BBCDE"/>
<path d="M178.698 132.144C191.33 131.213 193.569 146.942 182.019 150.064C169.871 151.83 166.496 135.436 178.698 132.144Z" fill="black"/>
<path d="M179.22 135.294C187.085 134.88 188.815 144.874 181.408 146.907C173.21 147.573 171.346 137.499 179.22 135.294Z" fill="#7BBCDE"/>
<path d="M146.421 241.478C157.68 242.148 157.685 257.928 146.421 258.689C134.976 258.637 133.457 242.525 146.421 241.478Z" fill="black"/>
<path d="M144.855 244.445C152.177 243.855 154.654 252.846 147.137 255.553C139.472 256.318 137.884 247.084 144.855 244.445Z" fill="#7BBCDE"/>
<path d="M212.702 241.478C223.772 240.657 226.197 256.048 214.531 258.689C202.814 258.715 201.068 243.208 212.702 241.478Z" fill="black"/>
<path d="M213.258 244.445C220.44 244.771 221.256 253.407 214.531 255.553C206.609 255.321 205.906 245.852 213.258 244.445Z" fill="#7BBCDE"/>
<path d="M178.698 200.347C189.728 199.63 192.083 214.486 180.807 217.561C169.148 218.324 166.979 201.896 178.698 200.347Z" fill="black"/>
<path d="M179.22 203.642C185.609 202.73 187.188 212.386 180.406 214.352C172.894 214.458 171.533 204.95 179.22 203.642Z" fill="#7BBCDE"/>
<path d="M248.62 172.551C258.138 170.811 262.905 185.843 250.314 189.549C237.929 188.621 238.055 173.525 248.62 172.551Z" fill="black"/>
<path d="M248.62 175.724C255.677 175.114 257.035 184.512 250.314 186.009C243.316 186.58 241.677 178.144 248.62 175.724Z" fill="#7BBCDE"/>
<path d="M224.943 260.773C236.041 259.961 237.777 274.295 227.642 276.709C217.352 278.385 214.346 263.274 224.943 260.773Z" fill="black"/>
<path d="M225.572 264.118C232.493 263.942 233.002 271.838 226.973 273.655C220.464 274.008 219.445 265.626 225.572 264.118Z" fill="#7BBCDE"/>
<path d="M133.154 260.081C142.059 258.994 145.778 272.6 135.123 275.74C124.88 277.304 121.501 261.962 133.154 260.081Z" fill="black"/>
<path d="M133.154 263.244C139.045 263.295 140.553 270.218 135.123 272.669C128.14 273.799 126.774 264.741 133.154 263.244Z" fill="#7BBCDE"/>
<path d="M268.48 167.281C279.311 166.656 281.359 178.981 271.619 182.773C261.02 183.507 258.605 170.313 268.48 167.281Z" fill="black"/>
<path d="M269.495 170.281C275.892 170.781 276.191 177.87 270.49 179.538C264.394 179.706 263.775 171.599 269.495 170.281Z" fill="#7BBCDE"/>
<path d="M236.176 280.818C245.592 279.979 246.781 292.24 237.938 294.31C228.454 295.042 226.81 282.663 236.176 280.818Z" fill="black"/>
<path d="M236.176 283.957C241.187 283.235 241.832 289.31 237.938 291.378C232.907 291.775 231.253 285.948 236.176 283.957Z" fill="#7BBCDE"/>
<path d="M287.853 163.774C296.356 163.178 298.294 174.097 290.156 176.573C281.321 177.804 279.173 165.843 287.853 163.774Z" fill="black"/>
<path d="M288.462 167.281C292.844 166.93 293.476 172.047 289.385 173.537C284.96 173.66 283.96 168.11 288.462 167.281Z" fill="#7BBCDE"/>
<path d="M247.087 298.723C255.593 298.172 257.656 309.298 249.418 311.491C240.153 312.154 238.925 300.811 247.087 298.723Z" fill="black"/>
<path d="M247.637 301.869C252.088 301.711 252.436 307.012 248.62 308.385C244.005 308.576 243.843 303.56 247.637 301.869Z" fill="#7BBCDE"/>
<path d="M304.193 160.111C311.404 158.805 314.283 168.638 306.384 171.24C298.918 171.358 296.084 161.596 304.193 160.111Z" fill="black"/>
<path d="M304.193 163.226C307.631 162.931 309.213 165.917 306.384 168.353C303.211 168.068 300.869 165.137 304.193 163.226Z" fill="#7BBCDE"/>
<path d="M412.25 309.75L370.25 306L379.5 134.25C375.167 135.25 371.167 136.417 367.5 137.75L360 95.25C368.833 93.4167 379.75 91.5 392.75 89.5C405.75 87.5 419.167 86.5 433 86.5C443.667 86.5 454.5 87.6667 465.5 90C476.5 92.1667 487 95.8333 497 101C507.167 106 516.167 112.75 524 121.25C532 129.75 538.25 140.167 542.75 152.5C547.417 164.833 549.75 179.417 549.75 196.25C549.75 219.917 545.917 240.167 538.25 257C530.75 273.667 519.75 286.417 505.25 295.25C490.917 304.083 473.583 308.5 453.25 308.5C439.75 308.5 426.417 306 413.25 301C412.917 304.333 412.583 307.25 412.25 309.75ZM431.25 128.5C428.917 128.5 426.5 128.5 424 128.5C422.333 159.5 420.833 185.917 419.5 207.75C418.167 229.417 417 247.5 416 262C421 263.667 426.5 265.167 432.5 266.5C438.667 267.667 445.083 268.25 451.75 268.25C465.25 268.25 476.083 264.833 484.25 258C492.583 251.167 498.583 242.167 502.25 231C505.917 219.667 507.75 207.417 507.75 194.25C507.75 183.75 506.167 174.833 503 167.5C499.833 160.167 495.667 154.083 490.5 149.25C485.5 144.417 480 140.667 474 138C468 135.167 462.083 133.083 456.25 131.75C450.583 130.417 445.5 129.583 441 129.25C436.5 128.75 433.25 128.5 431.25 128.5ZM580.719 307.25C580.552 305.417 580.469 303.417 580.469 301.25C580.469 299.083 580.469 296.583 580.469 293.75C580.469 286.583 580.635 278.083 580.969 268.25C581.302 258.25 581.802 247.667 582.469 236.5C583.135 225.167 583.802 213.833 584.469 202.5C585.135 191 585.802 180 586.469 169.5C587.302 159 588.052 149.583 588.719 141.25C585.052 142.417 581.802 143.5 578.969 144.5L572.469 102.5C591.302 97.1667 608.802 93.1667 624.969 90.5C641.302 87.8333 656.052 86.5 669.219 86.5C696.052 86.5 716.552 91.5833 730.719 101.75C744.885 111.917 751.969 126.667 751.969 146C751.969 157 749.552 166.25 744.719 173.75C739.885 181.083 733.052 187.167 724.219 192C745.885 203 756.719 220.917 756.719 245.75C756.719 256.75 754.635 266 750.469 273.5C746.469 280.833 741.302 286.75 734.969 291.25C728.635 295.75 721.885 299.083 714.719 301.25C707.719 303.583 701.052 305.083 694.719 305.75C688.552 306.583 683.719 307 680.219 307C671.552 307 662.302 306.167 652.469 304.5C642.635 302.833 633.052 300.333 623.719 297C623.719 300.333 623.719 303.5 623.719 306.5L580.719 307.25ZM670.219 128.25C664.219 128.25 657.885 128.583 651.219 129.25C644.719 129.75 638.219 130.583 631.719 131.75C630.719 143.917 629.719 158.083 628.719 174.25C630.885 174.417 633.052 174.5 635.219 174.5C637.552 174.5 639.885 174.5 642.219 174.5C686.219 174.5 708.219 165.5 708.219 147.5C708.219 141.5 704.802 136.833 697.969 133.5C691.302 130 682.052 128.25 670.219 128.25ZM647.969 214C644.469 214 640.885 214 637.219 214C633.719 214 630.135 214.083 626.469 214.25C626.135 221.583 625.802 228.917 625.469 236.25C625.302 243.583 625.052 250.833 624.719 258C634.052 260.833 643.219 262.917 652.219 264.25C661.219 265.417 668.969 266 675.469 266C689.302 266 699.219 264.333 705.219 261C711.219 257.5 714.219 251.833 714.219 244C714.219 234.333 708.469 226.917 696.969 221.75C685.635 216.583 669.302 214 647.969 214ZM789.471 308C787.971 298.667 786.887 287.25 786.221 273.75C785.554 260.25 785.221 245.667 785.221 230C785.221 213.833 785.471 197.25 785.971 180.25C786.637 163.25 787.387 146.917 788.221 131.25C789.221 115.417 790.304 101.417 791.471 89.25L834.971 90C833.137 101.667 831.637 114.667 830.471 129C829.471 143.167 828.637 157.917 827.971 173.25C839.804 171.583 852.637 170.333 866.471 169.5C880.304 168.667 893.637 168.25 906.471 168.25C912.637 168.25 918.554 168.417 924.221 168.75C924.054 156.25 923.804 144.583 923.471 133.75C923.137 122.917 922.721 113.75 922.221 106.25C921.721 98.75 921.137 93.5833 920.471 90.75L963.471 88C964.971 102 966.137 118.75 966.971 138.25C967.971 157.75 968.471 178.417 968.471 200.25C968.471 217.917 968.137 235.917 967.471 254.25C966.804 272.417 965.637 289.917 963.971 306.75H922.221C922.887 301.417 923.387 294.167 923.721 285C924.054 275.667 924.304 265.167 924.471 253.5C924.637 241.667 924.721 229.333 924.721 216.5C924.721 214.167 924.721 211.75 924.721 209.25C921.554 209.25 918.304 209.25 914.971 209.25C911.804 209.083 908.554 209 905.221 209C892.054 209 878.721 209.5 865.221 210.5C851.887 211.333 839.137 212.583 826.971 214.25C826.971 219.583 826.971 224.917 826.971 230.25C826.971 244.917 827.054 258.667 827.221 271.5C827.554 284.333 828.054 296 828.721 306.5L789.471 308ZM1053.72 310.5C1043.05 310.5 1034.22 308.583 1027.22 304.75C1020.39 301.083 1014.89 296 1010.72 289.5C1006.72 283 1003.72 275.75 1001.72 267.75C999.887 259.583 998.637 251.167 997.971 242.5C997.471 233.667 997.221 225.167 997.221 217C997.221 207.667 997.471 198.167 997.971 188.5C998.637 178.833 999.304 168.25 999.971 156.75L1045.72 154C1045.22 157.5 1044.47 162.75 1043.47 169.75C1042.47 176.75 1041.55 184.75 1040.72 193.75C1039.89 202.75 1039.47 212.167 1039.47 222C1039.47 238.167 1040.89 250.167 1043.72 258C1046.55 265.667 1050.8 269.5 1056.47 269.5C1067.8 269.5 1076.14 261.25 1081.47 244.75C1086.8 228.25 1089.47 202.167 1089.47 166.5V155L1110.72 154.5L1136.47 154C1134.14 169.667 1132.39 184.083 1131.22 197.25C1130.05 210.417 1129.3 221.5 1128.97 230.5C1128.64 239.333 1128.47 245.25 1128.47 248.25C1128.47 255.917 1129.14 261.417 1130.47 264.75C1131.8 267.917 1134.14 269.5 1137.47 269.5C1139.14 269.5 1140.97 269.167 1142.97 268.5C1144.97 267.833 1147.3 266.667 1149.97 265L1148.22 308C1141.89 309 1136.39 309.5 1131.72 309.5C1123.72 309.5 1117.14 308 1111.97 305C1106.97 302 1102.97 298 1099.97 293C1094.8 298.5 1088.39 302.75 1080.72 305.75C1073.22 308.917 1064.22 310.5 1053.72 310.5ZM1172.83 308C1172.83 294.333 1173.08 279.667 1173.58 264C1174.08 248.333 1174.75 232.417 1175.58 216.25C1176.42 200.083 1177.25 184.25 1178.08 168.75C1179.08 153.25 1180.08 138.667 1181.08 125C1182.08 111.167 1182.92 98.9167 1183.58 88.25L1225.33 88.75C1224.33 98.25 1223.33 108.917 1222.33 120.75C1221.5 132.583 1220.67 145.167 1219.83 158.5C1224.67 156.5 1229.83 155 1235.33 154C1241 152.833 1247.08 152.25 1253.58 152.25C1262.42 152.25 1270.83 153.75 1278.83 156.75C1287 159.583 1294.33 164 1300.83 170C1307.33 176 1312.42 183.75 1316.08 193.25C1319.92 202.75 1321.83 214.167 1321.83 227.5C1321.83 241.667 1319.83 253.917 1315.83 264.25C1311.83 274.583 1306.42 283.083 1299.58 289.75C1292.75 296.417 1285 301.333 1276.33 304.5C1267.83 307.833 1259.08 309.5 1250.08 309.5C1243.25 309.5 1236.83 308.583 1230.83 306.75C1225 304.917 1219.58 302.5 1214.58 299.5C1214.58 302.167 1214.58 304.833 1214.58 307.5L1172.83 308ZM1247.83 194.25C1235.33 194.25 1225.17 197.917 1217.33 205.25C1216.67 220.583 1216.08 235.583 1215.58 250.25C1223.75 261.083 1235.17 266.5 1249.83 266.5C1254.67 266.5 1259.5 265.417 1264.33 263.25C1269.33 260.917 1273.5 257 1276.83 251.5C1280.17 246 1281.83 238.333 1281.83 228.5C1281.83 217.333 1278.92 208.833 1273.08 203C1267.42 197.167 1259 194.25 1247.83 194.25Z" fill="black"/>
</svg>
