<svg width="6353" height="1726" viewBox="0 0 6353 1726" fill="none" xmlns="http://www.w3.org/2000/svg">
<path d="M932.758 194.086C990.644 187.641 994.506 253.599 1004.52 293.669L1071.19 557.635C1086.66 617.755 1112.76 664.055 1183.11 671.28C1201.83 673.205 1220.9 670.424 1239.54 668.567L1464.68 644.319C1509.6 638.987 1554.72 632.773 1599.81 629.069C1655.86 624.465 1686.69 687.137 1643.32 725.678C1631.49 736.2 1614.3 743.483 1600.46 751.187L1536.7 787.454C1456.53 833.891 1369.28 894.793 1296.52 951.419C1205.32 1022.39 1217.56 1046.43 1259.85 1154.31C1290.73 1233.08 1324.17 1310.97 1358.13 1388.48C1373.93 1424.55 1408.1 1476.68 1375.83 1513.33C1332 1563.11 1280.32 1497.95 1249.88 1469.63C1189.97 1413.88 1015.5 1234.22 942.868 1237.89C897.236 1219.17 819.244 1298.6 789.485 1324.29C725.644 1379.41 662.929 1435.7 601.74 1493.73C591.612 1503.34 581.273 1514.47 569.298 1521.73C533.005 1543.74 482.837 1516.61 488.323 1472.69C489.793 1460.9 496.739 1449.17 501.309 1438.33L558.244 1304.05C576.41 1260.99 594.656 1218.06 611.914 1174.61L634.828 1115.6C653.59 1066.04 660.445 1028.05 621.324 981.757C572.81 924.35 336.476 783.403 270.362 746.027C245.458 731.947 217.523 721.385 213.041 689.22C209.027 660.405 230.841 632.129 259.715 628.425C277.545 626.14 325.21 634.171 345.677 636.581L611.742 666.717C686.001 674.998 747.604 678.58 792.798 602.755C805.008 582.268 808.533 560.419 813.619 537.579L871.313 290.051C880.692 249.709 882.006 200.198 932.758 194.086Z" fill="black"/>
<path d="M509.67 1479.01C513.593 1465.08 520.95 1451.58 526.558 1438.2L586.392 1298.36C612.703 1235.75 643.102 1165.9 664.944 1101.72C679.796 1058.08 671.836 1011.99 645.41 974.599C604.877 917.242 377.749 781.071 316.074 745.812C300.702 737.023 245.524 708.076 239.503 694.899C232.039 678.564 239.854 654.561 259.091 651.218C272.513 648.886 329.481 658.235 346.42 660.361L613.239 690.912C694.831 699.492 767.984 696.048 814.323 612.323C827.622 588.297 832.411 561.069 838.545 534.61L854.371 465.188C867.474 407.218 880.328 349.065 894.675 291.398C901.773 262.887 903.926 199.735 952.868 220.17C974.979 234.281 975.394 272.886 981.814 297.914L1044.24 546.035C1050.8 572.235 1055.87 598.879 1069.46 622.595C1108.34 690.46 1170.84 698.461 1239.67 691.188L1542.81 659.492C1559.88 657.766 1604.9 650.13 1618.61 653.533C1638.02 658.356 1645.2 684.135 1635.04 700.069C1627.1 712.542 1574.64 738.239 1559.9 746.793C1498.83 782.237 1267.91 924.916 1228.16 981.417C1183.18 1045.36 1215.48 1104.54 1240.34 1167.2C1269.55 1240.79 1300.12 1313.83 1331.8 1386.38L1355.64 1440.76C1365.76 1463.95 1381.17 1500.73 1339.64 1507.9C1321.39 1511.06 1298.01 1482.64 1286.26 1471.77L1180.79 1373.89C1128.81 1325.51 1075.35 1276.11 1015.27 1237.89C962.742 1210.83 914.047 1199.14 863.39 1234.26C827.174 1259.37 787.055 1296.88 753.364 1326.51C706.481 1367.75 659.296 1408.27 613.727 1450.98C589.223 1473.94 532.328 1546.58 509.67 1479.01Z" fill="#FD8D31"/>
<path d="M509.67 1479.01C513.593 1465.08 520.95 1451.58 526.558 1438.2L586.392 1298.36C612.703 1235.75 643.102 1165.9 664.944 1101.72C679.796 1058.08 671.836 1011.99 645.41 974.599C604.877 917.242 377.749 781.071 316.074 745.812C300.702 737.023 245.524 708.076 239.503 694.899C232.039 678.564 239.854 654.561 259.091 651.218C272.513 648.886 329.481 658.235 346.42 660.361L613.239 690.912C694.831 699.492 767.984 696.048 814.323 612.323C827.622 588.297 832.411 561.069 838.545 534.61L854.371 465.188C867.474 407.218 880.328 349.065 894.675 291.398C901.772 262.887 903.926 199.735 952.868 220.17C947.843 244.851 936.832 293.381 935.262 317.307C903.798 327.652 901.065 360.268 924.545 379.542C920.844 387.738 909.645 427.415 912.719 434.54C894.476 449.224 891.025 465.323 898.113 486.875C894.038 494.185 877.126 580.333 874.164 593.993C861.61 651.879 851.709 703.375 789.145 725.443C734.602 744.683 634.767 722.969 577.545 713.034C567.088 711.217 487.845 694.006 482.928 703.698C503.681 716.222 508.73 741.68 493.261 760.991C496.594 765.339 523.703 778.263 529.635 777.289L530.424 776.157C537.777 814.81 574.044 826.78 604.16 800.227C608.871 805.363 653.165 829.362 658.898 827.279C670.761 848.269 677.1 845.336 694.248 852.441C697.021 862.528 712.982 871.711 720.117 879.355C760.431 922.534 775.32 981.326 752.72 1036.81C735.205 1079.81 702.585 1116.83 682.327 1159.13C677.457 1169.3 637.285 1261.12 641.541 1268.9C632.85 1280.65 629.004 1291.01 631.778 1305.43C625.176 1311.56 620.242 1335.48 612.052 1345.79L612.09 1346.86L616.528 1347.74C631.134 1350.54 639.796 1355.38 646.108 1368.74C658.049 1359.53 674.101 1340.23 686.476 1329C696.809 1319.63 708.716 1311.98 719.372 1302.91C787.372 1245.1 861.759 1160.82 959.905 1201.04C974.892 1207.17 1008.99 1222.89 1015.27 1237.89C962.742 1210.83 914.047 1199.14 863.39 1234.26C827.174 1259.37 787.055 1296.88 753.364 1326.51C706.481 1367.75 659.296 1408.27 613.727 1450.98C589.223 1473.94 532.328 1546.58 509.67 1479.01Z" fill="#F55E24"/>
<path d="M493.261 760.991C481.067 771.449 464.48 777.357 448.818 770.889C404.161 752.445 433.369 678.348 482.928 703.698C503.681 716.222 508.73 741.68 493.261 760.991Z" fill="black"/>
<path d="M458.791 713.778C490.12 711.241 496.388 746.115 469.151 757.213C437.906 759.943 432.382 725.129 458.791 713.778Z" fill="#7BBCDE"/>
<path d="M616.528 1347.74C631.134 1350.54 639.796 1355.38 646.108 1368.74C650.092 1400.08 623.619 1430.3 596.169 1409.4C572.187 1391.14 584.495 1349.89 616.528 1347.74Z" fill="black"/>
<path d="M616.528 1363.26C640.274 1364.05 635.212 1392.9 618.058 1400.16C594.389 1404.15 595.363 1370.16 616.528 1363.26Z" fill="#7BBCDE"/>
<path d="M349.765 674.142C394.422 672.393 404.258 727.317 362.056 739.493C317.443 749.024 308.014 684.795 349.765 674.142Z" fill="black"/>
<path d="M352.581 689.267C377.944 688.482 380.472 717.213 359.099 725.655C333.554 727.354 331.195 697.359 352.581 689.267Z" fill="#7BBCDE"/>
<path d="M658.898 827.279C644.106 781.832 683.268 748.286 721.745 768.783C765.594 792.142 743.105 855.642 694.248 852.441C677.1 845.336 670.761 848.268 658.898 827.279Z" fill="black"/>
<path d="M694.248 779.281C733.291 772.153 741.258 828.206 704.891 837.437C665.665 839.698 656.343 788.401 694.248 779.281Z" fill="#7BBCDE"/>
<path d="M530.424 776.157C529.072 699.384 652.218 730.976 604.16 800.227C574.044 826.78 537.777 814.809 530.424 776.157Z" fill="black"/>
<path d="M570.542 745.782C607.432 745.748 608.642 790.251 574.994 800.227C540.005 798.99 535.567 754.254 570.542 745.782Z" fill="#7BBCDE"/>
<path d="M912.719 434.54C951.786 414.366 991.49 445.941 976.998 483.609C963.322 519.154 916.355 515.693 898.113 486.875C891.025 465.323 894.476 449.223 912.719 434.54Z" fill="black"/>
<path d="M930.682 443.356C966.702 439.672 977.83 482.288 942.868 494.124C909.055 498.108 897.108 454.879 930.682 443.356Z" fill="#7BBCDE"/>
<path d="M641.541 1268.9C704.419 1219.76 723.966 1342.46 657.027 1328.41C644.521 1325.78 636.918 1316.37 631.778 1305.43C629.004 1291.01 632.85 1280.65 641.541 1268.9Z" fill="black"/>
<path d="M667.323 1274.9C689.974 1275.16 694.558 1306.58 667.323 1315.49C639.914 1315.1 637.231 1282.31 667.323 1274.9Z" fill="#7BBCDE"/>
<path d="M935.262 317.307C1001.04 304.568 987.247 411.676 924.545 379.542C901.065 360.268 903.798 327.652 935.262 317.307Z" fill="black"/>
<path d="M942.868 332.246C956.7 333.063 960.191 338.881 963.632 351.95C960.481 362.145 956.935 367.379 945.75 369.819C919.466 370.324 917.464 336.352 942.868 332.246Z" fill="#7BBCDE"/>
<path d="M818.573 815.874C866.544 797.702 905.254 890.861 832.654 910.832C760.06 913.511 759.821 820.326 818.573 815.874Z" fill="black"/>
<path d="M818.573 831.701C858.516 819.305 874.919 880.271 832.654 894.844C786.078 902.882 775.037 839.044 818.573 831.701Z" fill="#7BBCDE"/>
<path d="M932.758 701.073C940.125 695.981 953.565 700.278 960.69 703.995C1001.46 725.267 991.628 781.532 945.75 794.791C879.55 804.982 867.528 700.958 932.758 701.073Z" fill="black"/>
<path d="M932.758 713.778C976.752 711.969 984.874 767.883 942.868 779.281C898.291 784.559 890.459 724.307 932.758 713.778Z" fill="#7BBCDE"/>
<path d="M1042.28 815.874C1102.21 809.309 1116.81 897.5 1054.33 910.832C985.417 913.495 978.515 825.176 1042.28 815.874Z" fill="black"/>
<path d="M1042.28 831.701C1083.01 827.343 1093.96 881.549 1054.33 894.844C1010.24 901.51 997.378 843.267 1042.28 831.701Z" fill="#7BBCDE"/>
<path d="M849.37 961.577C922.186 968.772 912.513 1045.51 861.27 1055.53C801.921 1059.63 782.826 983.948 849.37 961.577Z" fill="black"/>
<path d="M849.37 979.206C891.028 976.507 898.979 1026.45 861.27 1039.82C818.846 1045.67 807.411 989.438 849.37 979.206Z" fill="#7BBCDE"/>
<path d="M1013.64 961.577C1071.79 957.448 1086.56 1037.33 1026.99 1052.12C963.42 1060.89 949.663 970.919 1013.64 961.577Z" fill="black"/>
<path d="M1013.64 976.652C1053.23 974.023 1063.29 1021.42 1026.99 1036.68C982.363 1041.13 972.384 989.041 1013.64 976.652Z" fill="#7BBCDE"/>
<path d="M1173.18 776.157C1180.77 772.706 1194.27 780.11 1200.05 784.724C1233.72 811.564 1212.7 860.546 1173.18 863.909C1110.36 863.279 1110.49 776.983 1173.18 776.157Z" fill="black"/>
<path d="M1167.42 791.276C1206.56 787.373 1211.39 837.582 1177.43 848.231C1138.6 854.891 1127.46 802.34 1167.42 791.276Z" fill="#7BBCDE"/>
<path d="M932.758 552.051C993.323 547.589 1004.05 623 948.682 637.97C890.435 646.436 874.255 567.833 932.758 552.051Z" fill="black"/>
<path d="M935.262 567.156C972.967 565.171 981.261 613.084 945.75 622.831C906.447 626.026 897.509 577.724 935.262 567.156Z" fill="#7BBCDE"/>
<path d="M778.006 1076.25C831.986 1079.46 832.01 1155.12 778.006 1158.76C723.137 1158.52 715.85 1081.27 778.006 1076.25Z" fill="black"/>
<path d="M770.498 1090.47C805.605 1087.64 817.481 1130.75 781.441 1143.73C744.689 1147.4 737.079 1103.12 770.498 1090.47Z" fill="#7BBCDE"/>
<path d="M1095.79 1076.25C1148.86 1072.31 1160.49 1146.1 1104.56 1158.76C1048.38 1158.89 1040.01 1084.54 1095.79 1076.25Z" fill="black"/>
<path d="M1098.45 1090.47C1132.89 1092.04 1136.8 1133.44 1104.56 1143.73C1066.58 1142.62 1063.21 1097.22 1098.45 1090.47Z" fill="#7BBCDE"/>
<path d="M932.758 879.048C985.643 875.607 996.933 946.836 942.868 961.577C886.971 965.237 876.574 886.473 932.758 879.048Z" fill="black"/>
<path d="M935.262 894.844C965.89 890.473 973.463 936.769 940.947 946.196C904.93 946.701 898.406 901.116 935.262 894.844Z" fill="#7BBCDE"/>
<path d="M1268 745.781C1313.63 737.437 1336.48 809.508 1276.12 827.279C1216.74 822.827 1217.34 750.449 1268 745.781Z" fill="black"/>
<path d="M1268 760.991C1301.83 758.069 1308.34 803.128 1276.12 810.304C1242.56 813.04 1234.7 772.595 1268 760.991Z" fill="#7BBCDE"/>
<path d="M1154.48 1168.76C1207.69 1164.86 1216.01 1233.59 1167.42 1245.16C1118.08 1253.19 1103.67 1180.75 1154.48 1168.76Z" fill="black"/>
<path d="M1157.49 1184.79C1190.67 1183.95 1193.11 1221.81 1164.21 1230.52C1133 1232.21 1128.12 1192.03 1157.49 1184.79Z" fill="#7BBCDE"/>
<path d="M714.398 1165.44C757.095 1160.23 774.926 1225.46 723.841 1240.51C674.731 1248.01 658.531 1174.46 714.398 1165.44Z" fill="black"/>
<path d="M714.398 1180.6C742.643 1180.85 749.876 1214.04 723.841 1225.79C690.362 1231.21 683.81 1187.78 714.398 1180.6Z" fill="#7BBCDE"/>
<path d="M1363.21 720.515C1415.14 717.516 1424.96 776.609 1378.26 794.791C1327.45 798.309 1315.87 735.051 1363.21 720.515Z" fill="black"/>
<path d="M1368.08 734.896C1398.75 737.292 1400.18 771.284 1372.85 779.281C1343.62 780.083 1340.66 741.218 1368.08 734.896Z" fill="#7BBCDE"/>
<path d="M1208.33 1264.86C1253.48 1260.84 1259.18 1319.62 1216.78 1329.55C1171.31 1333.06 1163.43 1273.71 1208.33 1264.86Z" fill="black"/>
<path d="M1208.33 1279.91C1232.36 1276.45 1235.45 1305.57 1216.78 1315.49C1192.66 1317.39 1184.73 1289.45 1208.33 1279.91Z" fill="#7BBCDE"/>
<path d="M1456.09 703.698C1496.86 700.84 1506.15 753.192 1467.14 765.062C1424.78 770.967 1414.48 713.62 1456.09 703.698Z" fill="black"/>
<path d="M1459.01 720.515C1480.03 718.83 1483.05 743.365 1463.44 750.51C1442.23 751.096 1437.43 724.489 1459.01 720.515Z" fill="#7BBCDE"/>
<path d="M1260.65 1350.7C1301.43 1348.06 1311.32 1401.4 1271.82 1411.92C1227.4 1415.1 1221.51 1360.72 1260.65 1350.7Z" fill="black"/>
<path d="M1263.28 1365.79C1284.62 1365.03 1286.29 1390.44 1268 1397.03C1245.87 1397.95 1245.09 1373.9 1263.28 1365.79Z" fill="#7BBCDE"/>
<path d="M1534.43 686.136C1569.01 679.878 1582.81 727.02 1544.94 739.493C1509.15 740.059 1495.56 693.257 1534.43 686.136Z" fill="black"/>
<path d="M1534.43 701.073C1550.92 699.657 1558.5 713.974 1544.94 725.655C1529.73 724.287 1518.5 710.233 1534.43 701.073Z" fill="#7BBCDE"/>
<path d="M2184.9 1399.9L2000.1 1383.4L2040.8 627.7C2021.73 632.1 2004.13 637.233 1988 643.1L1955 456.1C1993.87 448.033 2041.9 439.6 2099.1 430.8C2156.3 422 2215.33 417.6 2276.2 417.6C2323.13 417.6 2370.8 422.733 2419.2 433C2467.6 442.533 2513.8 458.667 2557.8 481.4C2602.53 503.4 2642.13 533.1 2676.6 570.5C2711.8 607.9 2739.3 653.733 2759.1 708C2779.63 762.267 2789.9 826.433 2789.9 900.5C2789.9 1004.63 2773.03 1093.73 2739.3 1167.8C2706.3 1241.13 2657.9 1297.23 2594.1 1336.1C2531.03 1374.97 2454.77 1394.4 2365.3 1394.4C2305.9 1394.4 2247.23 1383.4 2189.3 1361.4C2187.83 1376.07 2186.37 1388.9 2184.9 1399.9ZM2268.5 602.4C2258.23 602.4 2247.6 602.4 2236.6 602.4C2229.27 738.8 2222.67 855.033 2216.8 951.1C2210.93 1046.43 2205.8 1126 2201.4 1189.8C2223.4 1197.13 2247.6 1203.73 2274 1209.6C2301.13 1214.73 2329.37 1217.3 2358.7 1217.3C2418.1 1217.3 2465.77 1202.27 2501.7 1172.2C2538.37 1142.13 2564.77 1102.53 2580.9 1053.4C2597.03 1003.53 2605.1 949.633 2605.1 891.7C2605.1 845.5 2598.13 806.267 2584.2 774C2570.27 741.733 2551.93 714.967 2529.2 693.7C2507.2 672.433 2483 655.933 2456.6 644.2C2430.2 631.733 2404.17 622.567 2378.5 616.7C2353.57 610.833 2331.2 607.167 2311.4 605.7C2291.6 603.5 2277.3 602.4 2268.5 602.4ZM2926.16 1388.9C2925.43 1380.83 2925.06 1372.03 2925.06 1362.5C2925.06 1352.97 2925.06 1341.97 2925.06 1329.5C2925.06 1297.97 2925.8 1260.57 2927.26 1217.3C2928.73 1173.3 2930.93 1126.73 2933.86 1077.6C2936.8 1027.73 2939.73 977.867 2942.66 928C2945.6 877.4 2948.53 829 2951.46 782.8C2955.13 736.6 2958.43 695.167 2961.36 658.5C2945.23 663.633 2930.93 668.4 2918.46 672.8L2889.86 488C2972.73 464.533 3049.73 446.933 3120.86 435.2C3192.73 423.467 3257.63 417.6 3315.56 417.6C3433.63 417.6 3523.83 439.967 3586.16 484.7C3648.5 529.433 3679.66 594.333 3679.66 679.4C3679.66 727.8 3669.03 768.5 3647.76 801.5C3626.5 833.767 3596.43 860.533 3557.56 881.8C3652.9 930.2 3700.56 1009.03 3700.56 1118.3C3700.56 1166.7 3691.4 1207.4 3673.06 1240.4C3655.46 1272.67 3632.73 1298.7 3604.86 1318.5C3577 1338.3 3547.3 1352.97 3515.76 1362.5C3484.96 1372.77 3455.63 1379.37 3427.76 1382.3C3400.63 1385.97 3379.36 1387.8 3363.96 1387.8C3325.83 1387.8 3285.13 1384.13 3241.86 1376.8C3198.6 1369.47 3156.43 1358.47 3115.36 1343.8C3115.36 1358.47 3115.36 1372.4 3115.36 1385.6L2926.16 1388.9ZM3319.96 601.3C3293.56 601.3 3265.7 602.767 3236.36 605.7C3207.76 607.9 3179.16 611.567 3150.56 616.7C3146.16 670.233 3141.76 732.567 3137.36 803.7C3146.9 804.433 3156.43 804.8 3165.96 804.8C3176.23 804.8 3186.5 804.8 3196.76 804.8C3390.36 804.8 3487.16 765.2 3487.16 686C3487.16 659.6 3472.13 639.067 3442.06 624.4C3412.73 609 3372.03 601.3 3319.96 601.3ZM3222.06 978.6C3206.66 978.6 3190.9 978.6 3174.76 978.6C3159.36 978.6 3143.6 978.967 3127.46 979.7C3126 1011.97 3124.53 1044.23 3123.06 1076.5C3122.33 1108.77 3121.23 1140.67 3119.76 1172.2C3160.83 1184.67 3201.16 1193.83 3240.76 1199.7C3280.36 1204.83 3314.46 1207.4 3343.06 1207.4C3403.93 1207.4 3447.56 1200.07 3473.96 1185.4C3500.36 1170 3513.56 1145.07 3513.56 1110.6C3513.56 1068.07 3488.26 1035.43 3437.66 1012.7C3387.8 989.967 3315.93 978.6 3222.06 978.6ZM3844.67 1392.2C3838.07 1351.13 3833.3 1300.9 3830.37 1241.5C3827.44 1182.1 3825.97 1117.93 3825.97 1049C3825.97 977.867 3827.07 904.9 3829.27 830.1C3832.2 755.3 3835.5 683.433 3839.17 614.5C3843.57 544.833 3848.34 483.233 3853.47 429.7L4044.87 433C4036.8 484.333 4030.2 541.533 4025.07 604.6C4020.67 666.933 4017 731.833 4014.07 799.3C4066.14 791.967 4122.6 786.467 4183.47 782.8C4244.34 779.133 4303 777.3 4359.47 777.3C4386.6 777.3 4412.64 778.033 4437.57 779.5C4436.84 724.5 4435.74 673.167 4434.27 625.5C4432.8 577.833 4430.97 537.5 4428.77 504.5C4426.57 471.5 4424 448.767 4421.07 436.3L4610.27 424.2C4616.87 485.8 4622 559.5 4625.67 645.3C4630.07 731.1 4632.27 822.033 4632.27 918.1C4632.27 995.833 4630.8 1075.03 4627.87 1155.7C4624.94 1235.63 4619.8 1312.63 4612.47 1386.7H4428.77C4431.7 1363.23 4433.9 1331.33 4435.37 1291C4436.84 1249.93 4437.94 1203.73 4438.67 1152.4C4439.4 1100.33 4439.77 1046.07 4439.77 989.6C4439.77 979.333 4439.77 968.7 4439.77 957.7C4425.84 957.7 4411.54 957.7 4396.87 957.7C4382.94 956.967 4368.64 956.6 4353.97 956.6C4296.04 956.6 4237.37 958.8 4177.97 963.2C4119.3 966.867 4063.2 972.367 4009.67 979.7C4009.67 1003.17 4009.67 1026.63 4009.67 1050.1C4009.67 1114.63 4010.04 1175.13 4010.77 1231.6C4012.24 1288.07 4014.44 1339.4 4017.37 1385.6L3844.67 1392.2ZM5007.37 1403.2C4960.44 1403.2 4921.57 1394.77 4890.77 1377.9C4860.7 1361.77 4836.5 1339.4 4818.17 1310.8C4800.57 1282.2 4787.37 1250.3 4778.57 1215.1C4770.5 1179.17 4765 1142.13 4762.07 1104C4759.87 1065.13 4758.77 1027.73 4758.77 991.8C4758.77 950.733 4759.87 908.933 4762.07 866.4C4765 823.867 4767.94 777.3 4770.87 726.7L4972.17 714.6C4969.97 730 4966.67 753.1 4962.27 783.9C4957.87 814.7 4953.84 849.9 4950.17 889.5C4946.5 929.1 4944.67 970.533 4944.67 1013.8C4944.67 1084.93 4950.9 1137.73 4963.37 1172.2C4975.84 1205.93 4994.54 1222.8 5019.47 1222.8C5069.34 1222.8 5106 1186.5 5129.47 1113.9C5152.94 1041.3 5164.67 926.533 5164.67 769.6V719L5258.17 716.8L5371.47 714.6C5361.2 783.533 5353.5 846.967 5348.37 904.9C5343.24 962.833 5339.94 1011.6 5338.47 1051.2C5337 1090.07 5336.27 1116.1 5336.27 1129.3C5336.27 1163.03 5339.2 1187.23 5345.07 1201.9C5350.94 1215.83 5361.2 1222.8 5375.87 1222.8C5383.2 1222.8 5391.27 1221.33 5400.07 1218.4C5408.87 1215.47 5419.14 1210.33 5430.87 1203L5423.17 1392.2C5395.3 1396.6 5371.1 1398.8 5350.57 1398.8C5315.37 1398.8 5286.4 1392.2 5263.67 1379C5241.67 1365.8 5224.07 1348.2 5210.87 1326.2C5188.14 1350.4 5159.9 1369.1 5126.17 1382.3C5093.17 1396.23 5053.57 1403.2 5007.37 1403.2ZM5531.47 1392.2C5531.47 1332.07 5532.57 1267.53 5534.77 1198.6C5536.97 1129.67 5539.9 1059.63 5543.57 988.5C5547.24 917.367 5550.9 847.7 5554.57 779.5C5558.97 711.3 5563.37 647.133 5567.77 587C5572.17 526.133 5575.84 472.233 5578.77 425.3L5762.47 427.5C5758.07 469.3 5753.67 516.233 5749.27 568.3C5745.6 620.367 5741.94 675.733 5738.27 734.4C5759.54 725.6 5782.27 719 5806.47 714.6C5831.4 709.467 5858.17 706.9 5886.77 706.9C5925.64 706.9 5962.67 713.5 5997.87 726.7C6033.8 739.167 6066.07 758.6 6094.67 785C6123.27 811.4 6145.64 845.5 6161.77 887.3C6178.64 929.1 6187.07 979.333 6187.07 1038C6187.07 1100.33 6178.27 1154.23 6160.67 1199.7C6143.07 1245.17 6119.24 1282.57 6089.17 1311.9C6059.1 1341.23 6025 1362.87 5986.87 1376.8C5949.47 1391.47 5910.97 1398.8 5871.37 1398.8C5841.3 1398.8 5813.07 1394.77 5786.67 1386.7C5761 1378.63 5737.17 1368 5715.17 1354.8C5715.17 1366.53 5715.17 1378.27 5715.17 1390L5531.47 1392.2ZM5861.47 891.7C5806.47 891.7 5761.74 907.833 5727.27 940.1C5724.34 1007.57 5721.77 1073.57 5719.57 1138.1C5755.5 1185.77 5805.74 1209.6 5870.27 1209.6C5891.54 1209.6 5912.8 1204.83 5934.07 1195.3C5956.07 1185.03 5974.4 1167.8 5989.07 1143.6C6003.74 1119.4 6011.07 1085.67 6011.07 1042.4C6011.07 993.267 5998.24 955.867 5972.57 930.2C5947.64 904.533 5910.6 891.7 5861.47 891.7Z" fill="black"/>
</svg>
